#!OML:ASF X:\für Bonn\!DataBase\2005_08_10_Bjorn_Final\c3d\bjorn.ASF
:FULLY-SPECIFIED
:DEGREES
326
root 0.0506218 18.8578 4.76261 -180.17 35.0906 179.096
lowerback -2.67971 6.72299 -2.37236
upperback 6.28223 10.2311 -5.3849
thorax 8.76432 5.33043 -3.27068
lowerneck 6.09805 2.25401 13.264
upperneck 4.76753 4.1948 -3.68847
head 0.854276 2.4508 -3.60504
rclavicle -1.36366e-013 5.56597e-014
rhumerus 76.687 9.58028 -70.5854
rradius 42.6067
rwrist 26.197
rhand -16.8494 -0.831691
rfingers 7.12502
rthumb 9.38063 -30.603
lclavicle -1.36366e-013 5.56597e-014
lhumerus 51.9471 -19.0877 80.4129
lradius 62.6752
lwrist 68.3541
lhand -53.2951 12.6409
lfingers 7.12502
lthumb -25.7484 40.9189
rfemur 535.486 -186.591 -536.056
rtibia 45.3472
rfoot -0.869192 27.2602
rtoes -30.1811
lfemur 340.162 -8.98137 347.963
ltibia 41.0678
lfoot -12.2613 3.2029
ltoes -31.2623
327
root 0.0710978 18.93 4.78118 -180.024 35.0425 179.092
lowerback -2.84845 6.69181 -2.33308
upperback 6.24406 10.1764 -5.34068
thorax 8.81448 5.29638 -3.2323
lowerneck 6.05419 2.28955 13.1868
upperneck 4.90921 4.23556 -3.84942
head 0.914598 2.47425 -3.6449
rclavicle -3.18055e-015 9.22361e-014
rhumerus 76.5891 9.80778 -70.7126
rradius 42.8237
rwrist 26.3588
rhand -16.8985 -0.843272
rfingers 7.12502
rthumb 9.33327 -30.6167
lclavicle -3.18055e-015 9.22361e-014
lhumerus 51.857 -18.8982 80.3639
lradius 62.724
lwrist 68.2218
lhand -52.9468 12.3561
lfingers 7.12502
lthumb -25.4148 40.682
rfemur 535.389 -186.547 -535.868
rtibia 44.6822
rfoot -1.18204 27.2662
rtoes -29.3134
lfemur 340.464 -8.82356 348.088
ltibia 40.0782
lfoot -11.4028 2.86044
ltoes -31.299
328
root 0.0903281 18.9944 4.80108 -179.896 34.9845 179.066
lowerback -3.0202 6.66118 -2.2787
upperback 6.19687 10.1222 -5.30957
thorax 8.86197 5.26445 -3.21595
lowerneck 6.01871 2.31629 13.1036
upperneck 5.04598 4.26652 -3.9702
head 0.969757 2.49304 -3.66961
rclavicle -6.40087e-014 1.43125e-014
rhumerus 76.4877 10.0201 -70.8727
rradius 43.0002
rwrist 26.4492
rhand -16.9067 -0.779169
rfingers 7.12502
rthumb 9.32534 -30.5529
lclavicle -6.40087e-014 1.43125e-014
lhumerus 51.7621 -18.7217 80.3196
lradius 62.7082
lwrist 68.0688
lhand -52.5271 11.7912
lfingers 7.12502
lthumb -25.0126 40.1737
rfemur 535.292 -186.467 -535.718
rtibia 44.0313
rfoot -1.61138 27.2774
rtoes -28.5443
lfemur 340.735 -8.64321 348.189
ltibia 39.1538
lfoot -10.5663 2.51253
ltoes -31.3459
329
root 0.108502 19.0549 4.82091 -179.798 34.9287 179.018
lowerback -3.18034 6.63062 -2.26001
upperback 6.13673 10.0605 -5.2402
thorax 8.87356 5.22321 -3.14435
lowerneck 5.98476 2.35116 13.0031
upperneck 5.23624 4.31164 -4.12318
head 1.04405 2.52102 -3.70197
rclavicle -5.1684e-015 -4.92986e-014
rhumerus 76.4294 10.2583 -70.8637
rradius 43.147
rwrist 26.4042
rhand -16.8792 -0.808978
rfingers 7.12502
rthumb 9.35193 -30.5815
lclavicle -5.1684e-015 -4.92986e-014
lhumerus 51.5606 -18.5081 80.412
lradius 62.6854
lwrist 67.9169
lhand -51.99 11.1665
lfingers 7.12502
lthumb -24.4979 39.6196
rfemur 535.193 -186.369 -535.607
rtibia 43.4008
rfoot -2.09255 27.2528
rtoes -27.9163
lfemur 340.982 -8.4421 348.268
ltibia 38.3025
lfoot -9.83786 2.13707
ltoes -31.018
330
root 0.12703 19.1106 4.8424 -179.718 34.8727 178.957
lowerback -3.33486 6.60089 -2.23269
upperback 6.08144 10.0033 -5.18759
thorax 8.89278 5.18667 -3.09481
lowerneck 5.8811 2.3905 12.9013
upperneck 5.41625 4.3507 -4.21662
head 1.1253 2.54433 -3.71168
rclavicle 9.14409e-014 -1.51076e-013
rhumerus 76.4215 10.4678 -70.8385
rradius 43.2542
rwrist 26.2534
rhand -16.8994 -0.804776
rfingers 7.12502
rthumb 9.33241 -30.5782
lclavicle 9.14409e-014 -1.51076e-013
lhumerus 51.3795 -18.3167 80.435
lradius 62.6721
lwrist 67.807
lhand -51.4219 10.4412
lfingers 7.12502
lthumb -23.9532 38.967
rfemur 535.092 -186.296 -535.504
rtibia 42.7894
rfoot -2.71913 27.0949
rtoes -27.8205
lfemur 341.199 -8.16151 348.33
ltibia 37.5274
lfoot -9.1697 1.73688
ltoes -30.8527
331
root 0.1449 19.1598 4.86455 -179.661 34.8139 178.901
lowerback -3.45529 6.5775 -2.18492
upperback 6.00064 9.94714 -5.13516
thorax 8.86746 5.15206 -3.06241
lowerneck 5.953 2.40451 12.855
upperneck 5.45155 4.3819 -4.35393
head 1.12954 2.56048 -3.75261
rclavicle 9.93923e-015 6.36111e-015
rhumerus 76.3439 10.6904 -70.8269
rradius 43.2873
rwrist 26.0556
rhand -17.0364 -0.754666
rfingers 7.12502
rthumb 9.20026 -30.534
lclavicle 9.93923e-015 6.36111e-015
lhumerus 51.2249 -18.1449 80.4498
lradius 62.5601
lwrist 67.6311
lhand -50.7779 9.74362
lfingers 7.12502
lthumb -23.3356 38.3492
rfemur 535.015 -186.211 -535.41
rtibia 42.1881
rfoot -3.37979 26.9159
rtoes -28.1154
lfemur 341.405 -7.823 348.393
ltibia 36.8188
lfoot -8.52499 1.28862
ltoes -30.6596
